<svg width="164" height="140" viewBox="0 0 164 140" fill="none" xmlns="http://www.w3.org/2000/svg">
<path d="M8.3213 91.899H0V83.6725H8.3213V77.5907C8.3213 75.1364 8.61328 72.7757 9.18955 70.5229C9.76581 68.2702 10.7416 66.2837 12.117 64.5707C13.4923 62.8578 15.3057 61.4975 17.557 60.497C19.8159 59.4966 22.6512 59 26.0627 59C27.2843 59 28.3063 59.0432 29.1284 59.1296C29.9505 59.2159 30.7881 59.3743 31.6409 59.5974C31.6409 59.5974 28.9517 67.9607 28.944 67.9103C28.2448 67.7951 27.4918 67.7376 26.7004 67.7376C25.1176 67.7376 23.8344 68.0255 22.8586 68.594C21.8828 69.1626 21.1375 69.9112 20.615 70.818C20.0925 71.7321 19.7468 72.7325 19.5624 73.8193C19.378 74.9061 19.2858 75.9641 19.2858 76.9933V83.6797H29.4434V91.9062H19.2858V124.812H8.30594V91.9062L8.3213 91.899Z" fill="#0E1D42"/>
<path d="M38.7333 84.968L46.2171 83.6653V124.798H35.2373V88.8977C35.2373 86.9689 36.7049 85.3135 38.7256 84.968H38.7333Z" fill="#0E1D42"/>
<path d="M35.2441 70.4005V75.3954C35.2441 77.5114 37.2957 79.1092 39.5162 78.7206L46.224 77.5546V68.4932L35.2441 70.4005Z" fill="#0E1D42"/>
<path d="M52.0332 101.414V124.805H63.1052V101.464C63.1052 101.464 63.1052 101.428 63.1052 101.414C63.1052 101.378 63.1052 101.342 63.1052 101.306C63.1667 96.5339 67.3081 92.6762 72.4177 92.6762C77.5273 92.6762 81.7456 96.5843 81.7456 101.414H81.7379V124.805H92.8099V101.414C92.8099 90.8624 83.6818 82.312 72.4254 82.312C61.169 82.312 52.0409 90.8624 52.0409 101.407L52.0332 101.414Z" fill="#0E1D42"/>
<path d="M140.409 95.0227C139.341 92.2518 137.858 89.9414 135.975 88.0845C134.085 86.2276 131.842 84.8313 129.252 83.8885C126.655 82.9456 123.835 82.4778 120.793 82.4778C117.496 82.4778 114.438 83.0032 111.595 84.0612C108.753 85.1192 106.302 86.6019 104.235 88.5163C102.16 90.4308 100.531 92.7484 99.3402 95.4546C98.1492 98.168 97.5576 101.184 97.5576 104.494C97.5576 107.805 98.1492 110.878 99.3402 113.534C100.531 116.19 102.175 118.428 104.281 120.257C106.386 122.085 108.868 123.503 111.734 124.503C114.6 125.503 117.742 126 121.154 126C126.732 126 132.748 124.525 138.065 120.156L132.072 113.52C131.112 114.441 128.507 115.945 128.015 116.19C126.125 117.133 123.805 117.601 121.062 117.601C119.479 117.601 117.95 117.342 116.49 116.831C115.03 116.32 113.716 115.622 112.556 114.729C111.396 113.844 110.466 112.786 109.767 111.555C109.068 110.331 108.653 108.971 108.53 107.489C108.13 103.494 108.53 100.118 108.53 100.118C108.776 97.2035 110.036 94.8212 112.325 92.9643C114.615 91.1074 117.404 90.1789 120.693 90.1789C122.46 90.1789 123.997 90.4524 125.311 90.9922C126.625 91.532 127.7 92.2662 128.561 93.1802C129.414 94.0943 130.036 95.1523 130.436 96.3542C130.835 97.5562 131.027 98.8085 131.027 100.126H112.279V107.496H141.907C141.969 107.042 141.999 106.582 141.999 106.121V104.754C141.999 101.04 141.462 97.8009 140.401 95.0299L140.409 95.0227Z" fill="#0E1D42"/>
<path d="M56.1 36.0299C57.56 34.7999 76.29 19.3699 76.29 19.3699L96.87 2.10994C100.03 -0.540061 104.64 -0.550061 107.81 2.09994L159.24 45.0899C162.23 47.5899 163.95 51.2799 163.95 55.1699V126.63C163.95 133.52 158.36 139.11 151.47 139.11H95.05L97.94 126.99H147.71C150.08 126.99 152 125.06 151.99 122.69L151.66 57.4699C151.66 55.5399 150.8 53.7099 149.3 52.4799L106.25 15.5899C104.58 14.1599 102.13 14.1299 100.43 15.5299L36.21 68.1299V58.7999C36.21 54.9999 37.88 51.3999 40.79 48.9599L56.11 36.0499L56.1 36.0299Z" fill="#F26522"/>
</svg>
