<svg width="443" height="213" viewBox="0 0 443 213" fill="none" xmlns="http://www.w3.org/2000/svg">
<path d="M191.54 91.16V97.56C191.54 100.78 194.46 103.21 197.62 102.62L205.82 101.1V88.51L191.53 91.16H191.54Z" fill="#0E1D42"/>
<path d="M361.69 168.48L364.62 156.54C363.98 156.76 363.31 156.96 362.57 157.09C361.46 157.29 360.43 157.39 359.47 157.39C356.29 157.39 354.25 156.55 353.34 154.89C352.43 153.22 351.97 151.12 351.97 148.58V124.33H366.26V110.6H351.97V84.8301L337.92 96.6901V148.69C337.92 151.47 338.18 154.07 338.69 156.49C339.2 158.91 340.16 161.06 341.55 162.92C342.94 164.79 344.82 166.25 347.21 167.33C349.59 168.4 352.69 168.94 356.5 168.94C358.09 168.94 359.76 168.8 361.5 168.52C361.57 168.51 361.63 168.49 361.69 168.48Z" fill="#0E1D42"/>
<path d="M11.33 46.5401H0.5V35.1101H11.33V26.6601C11.33 23.2501 11.71 19.9701 12.46 16.8401C13.21 13.7101 14.48 10.9501 16.27 8.57008C18.06 6.19008 20.42 4.30008 23.35 2.91008C26.29 1.52008 29.98 0.830078 34.42 0.830078C36.01 0.830078 37.34 0.890078 38.41 1.01008C39.48 1.13008 40.57 1.35008 41.68 1.66008C41.68 1.66008 38.18 13.2801 38.17 13.2101C37.26 13.0501 36.28 12.9701 35.25 12.9701C33.19 12.9701 31.52 13.3701 30.25 14.1601C28.98 14.9501 28.01 15.9901 27.33 17.2501C26.65 18.5201 26.2 19.9101 25.96 21.4201C25.72 22.9301 25.6 24.4001 25.6 25.8301V35.1201H38.82V46.5501H25.6V92.2701H11.31V46.5501L11.33 46.5401Z" fill="#0E1D42"/>
<path d="M205.83 110.59V171.19C205.83 174.6 205.55 177.84 205 180.89C204.44 183.95 203.39 186.61 201.85 188.87C200.3 191.13 198.2 192.94 195.54 194.29C192.88 195.64 189.41 196.31 185.12 196.31C183.93 196.31 182.74 196.23 181.55 196.07C180.36 195.91 179.41 195.75 178.69 195.59L179.88 183.45C180.52 183.61 181.19 183.73 181.9 183.81C182.61 183.89 183.25 183.93 183.81 183.93C185.48 183.93 186.83 183.61 187.86 182.98C188.89 182.34 189.68 181.47 190.24 180.36C190.79 179.25 191.15 177.96 191.31 176.49C191.47 175.02 191.55 173.45 191.55 171.79V119.26C191.55 115.77 194.04 112.78 197.47 112.15L205.84 110.6L205.83 110.59Z" fill="#0E1D42"/>
<path d="M50.9104 36.9101L60.6504 35.1001V92.2501H46.3604V42.3701C46.3604 39.6901 48.2704 37.3901 50.9004 36.9101H50.9104Z" fill="#0E1D42"/>
<path d="M46.3701 16.67V23.61C46.3701 26.55 49.0401 28.77 51.9301 28.23L60.6601 26.61V14.02L46.3701 16.67Z" fill="#0E1D42"/>
<path d="M121.29 138.93C121.29 134.41 122.1 130.3 123.73 126.61C125.36 122.92 127.56 119.76 130.34 117.14C133.12 114.52 136.41 112.5 140.22 111.07C144.03 109.64 148.08 108.93 152.36 108.93C156.64 108.93 160.69 109.64 164.5 111.07C168.31 112.5 171.6 114.52 174.38 117.14C177.16 119.76 179.36 122.92 180.99 126.61C182.62 130.3 183.43 134.41 183.43 138.93C183.43 143.45 182.62 147.58 180.99 151.31C179.36 155.04 177.16 158.24 174.38 160.89C171.6 163.55 168.31 165.63 164.5 167.14C160.69 168.65 156.64 169.4 152.36 169.4C148.08 169.4 144.03 168.64 140.22 167.14C136.41 165.63 133.11 163.55 130.34 160.89C127.56 158.23 125.36 155.04 123.73 151.31C122.1 147.58 121.29 143.45 121.29 138.93ZM135.81 138.93C135.81 141.15 136.15 143.38 136.82 145.6C137.49 147.82 138.51 149.81 139.86 151.55C141.21 153.3 142.91 154.73 144.98 155.84C147.04 156.95 149.5 157.51 152.36 157.51C155.22 157.51 157.68 156.95 159.74 155.84C161.8 154.73 163.51 153.3 164.86 151.55C166.21 149.8 167.22 147.82 167.9 145.6C168.57 143.38 168.91 141.16 168.91 138.93C168.91 136.7 168.57 134.51 167.9 132.32C167.22 130.14 166.21 128.18 164.86 126.43C163.51 124.68 161.8 123.28 159.74 122.2C157.67 121.13 155.22 120.59 152.36 120.59C149.5 120.59 147.04 121.13 144.98 122.2C142.92 123.27 141.21 124.68 139.86 126.43C138.51 128.18 137.5 130.14 136.82 132.32C136.14 134.5 135.81 136.71 135.81 138.93Z" fill="#0E1D42"/>
<path d="M68.2197 59.76V92.26H82.6297V59.83C82.6297 59.83 82.6297 59.78 82.6297 59.76C82.6297 59.71 82.6297 59.66 82.6297 59.61C82.7097 52.98 88.0997 47.62 94.7497 47.62C101.4 47.62 106.89 53.05 106.89 59.76H106.88V92.26H121.29V59.76C121.29 45.1 109.41 33.22 94.7597 33.22C80.1097 33.22 68.2297 45.1 68.2297 59.75L68.2197 59.76Z" fill="#0E1D42"/>
<path d="M4.20996 120.9C7.38996 120.9 9.42996 121.74 10.34 123.4C11.25 125.07 11.71 127.17 11.71 129.71V201.08L25.76 198.43V164.85C27.29 165.76 28.91 166.55 30.66 167.2C34.47 168.63 38.52 169.34 42.8 169.34C47.08 169.34 51.13 168.63 54.94 167.2C58.75 165.77 62.04 163.75 64.82 161.13C67.6 158.51 69.8 155.35 71.43 151.66C73.06 147.97 73.87 143.86 73.87 139.34C73.87 134.82 73.06 130.69 71.43 126.96C69.8 123.23 67.6 120.03 64.82 117.38C62.04 114.72 58.75 112.64 54.94 111.13C51.13 109.62 47.08 108.87 42.8 108.87C38.52 108.87 34.47 109.62 30.66 111.13C29.51 111.58 28.43 112.11 27.37 112.67C27.49 112.81 27.62 112.94 27.73 113.09C29.12 114.95 30.07 117.1 30.59 119.52C31.01 121.46 31.21 123.54 31.29 125.71C32.47 124.44 33.81 123.32 35.43 122.44C37.5 121.33 39.95 120.77 42.81 120.77C45.67 120.77 48.13 121.33 50.19 122.44C52.25 123.55 53.96 124.98 55.31 126.73C56.66 128.48 57.67 130.46 58.35 132.68C59.03 134.9 59.36 137.12 59.36 139.35C59.36 141.58 59.02 143.77 58.35 145.96C57.68 148.14 56.66 150.1 55.31 151.85C53.96 153.6 52.26 155 50.19 156.08C48.13 157.15 45.67 157.69 42.81 157.69C39.95 157.69 37.49 157.15 35.43 156.08C33.37 155.01 31.66 153.6 30.31 151.85C28.96 150.1 27.95 148.14 27.27 145.96C27.04 145.22 26.73 143.75 26.73 142.32V129.59C26.73 126.81 26.47 124.21 25.96 121.79C25.45 119.37 24.49 117.22 23.1 115.36C21.71 113.49 19.83 112.03 17.44 110.95C15.06 109.88 11.96 109.34 8.14996 109.34C6.91996 109.34 5.05996 109.43 3.45996 109.59V120.92C3.70996 120.91 3.95996 120.88 4.19996 120.88L4.20996 120.9Z" fill="#0E1D42"/>
<path d="M183.24 50.8802C181.85 47.0302 179.92 43.8202 177.47 41.2402C175.01 38.6602 172.09 36.7202 168.72 35.4102C165.34 34.1002 161.67 33.4502 157.71 33.4502C153.42 33.4502 149.44 34.1802 145.74 35.6502C142.04 37.1202 138.85 39.1802 136.16 41.8402C133.46 44.5002 131.34 47.7202 129.79 51.4802C128.24 55.2502 127.47 59.4402 127.47 64.0402C127.47 68.6402 128.24 72.9102 129.79 76.6002C131.34 80.2902 133.48 83.4002 136.22 85.9402C138.96 88.4802 142.19 90.4502 145.92 91.8402C149.65 93.2302 153.74 93.9202 158.18 93.9202C165.44 93.9202 173.27 91.8702 180.19 85.8002L172.39 76.5802C171.14 77.8602 167.75 79.9502 167.11 80.2902C164.65 81.6002 161.63 82.2502 158.06 82.2502C156 82.2502 154.01 81.8902 152.11 81.1802C150.21 80.4702 148.5 79.5002 146.99 78.2602C145.48 77.0302 144.27 75.5602 143.36 73.8502C142.45 72.1502 141.91 70.2602 141.75 68.2002C141.23 62.6502 141.75 57.9602 141.75 57.9602C142.07 53.9102 143.71 50.6002 146.69 48.0202C149.67 45.4402 153.3 44.1502 157.58 44.1502C159.88 44.1502 161.88 44.5302 163.59 45.2802C165.3 46.0302 166.7 47.0502 167.82 48.3202C168.93 49.5902 169.74 51.0602 170.26 52.7302C170.78 54.4002 171.03 56.1402 171.03 57.9702H146.63V68.2102H185.19C185.27 67.5802 185.31 66.9402 185.31 66.3002V64.4002C185.31 59.2402 184.61 54.7402 183.23 50.8902L183.24 50.8802Z" fill="#0E1D42"/>
<path d="M268.76 126.37C267.37 122.52 265.44 119.31 262.99 116.73C260.53 114.15 257.61 112.21 254.24 110.9C250.86 109.59 247.19 108.94 243.23 108.94C238.94 108.94 234.96 109.67 231.26 111.14C227.56 112.61 224.37 114.67 221.68 117.33C218.98 119.99 216.86 123.21 215.31 126.97C213.76 130.74 212.99 134.93 212.99 139.53C212.99 144.13 213.76 148.4 215.31 152.09C216.86 155.78 219 158.89 221.74 161.43C224.48 163.97 227.71 165.94 231.44 167.33C235.17 168.72 239.26 169.41 243.7 169.41C250.96 169.41 258.79 167.36 265.71 161.29L257.91 152.07C256.66 153.35 253.27 155.44 252.63 155.78C250.17 157.09 247.15 157.74 243.58 157.74C241.52 157.74 239.53 157.38 237.63 156.67C235.73 155.96 234.02 154.99 232.51 153.75C231 152.52 229.79 151.05 228.88 149.34C227.97 147.64 227.43 145.75 227.27 143.69C226.75 138.14 227.27 133.45 227.27 133.45C227.59 129.4 229.23 126.09 232.21 123.51C235.19 120.93 238.82 119.64 243.1 119.64C245.4 119.64 247.4 120.02 249.11 120.77C250.82 121.52 252.22 122.54 253.34 123.81C254.45 125.08 255.26 126.55 255.78 128.22C256.3 129.89 256.55 131.63 256.55 133.46H232.15V143.7H270.71C270.79 143.07 270.83 142.43 270.83 141.79V139.89C270.83 134.73 270.13 130.23 268.75 126.38L268.76 126.37Z" fill="#0E1D42"/>
<path d="M321.91 151.01C321.79 151.18 321.7 151.38 321.57 151.55C320.22 153.3 318.51 154.73 316.45 155.84C314.39 156.95 311.93 157.51 309.07 157.51C306.21 157.51 303.75 156.95 301.69 155.84C299.63 154.73 297.92 153.3 296.57 151.55C295.22 149.8 294.21 147.82 293.53 145.6C292.85 143.38 292.52 141.16 292.52 138.93C292.52 136.7 292.86 134.51 293.53 132.32C294.2 130.14 295.22 128.18 296.57 126.43C297.92 124.68 299.62 123.28 301.69 122.2C303.75 121.13 306.21 120.59 309.07 120.59C311.93 120.59 314.39 121.13 316.45 122.2C318.51 123.27 320.22 124.68 321.57 126.43C321.75 126.66 321.88 126.93 322.05 127.18L330.77 116.87C328.06 114.39 324.88 112.45 321.22 111.08C317.41 109.65 313.36 108.94 309.08 108.94C304.8 108.94 300.75 109.65 296.94 111.08C293.13 112.51 289.83 114.53 287.06 117.15C284.28 119.77 282.08 122.93 280.45 126.62C278.82 130.31 278.01 134.42 278.01 138.94C278.01 143.46 278.82 147.59 280.45 151.32C282.07 155.05 284.28 158.25 287.06 160.9C289.84 163.56 293.13 165.64 296.94 167.15C300.75 168.66 304.8 169.41 309.08 169.41C313.36 169.41 317.41 168.65 321.22 167.15C324.82 165.72 327.95 163.76 330.63 161.31L321.92 151.01H321.91Z" fill="#0E1D42"/>
<path d="M116.27 108.79C114.28 108.75 111.54 108.71 108.77 108.71C94.1202 108.71 82.2402 120.59 82.2402 135.24V167.74H96.6502V135.24H96.6402C96.6402 128.54 102.07 123.1 108.78 123.1C108.93 123.1 116.28 123.12 116.28 123.06V108.79H116.27Z" fill="#0E1D42"/>
<path d="M334.6 65.86C336.06 64.63 354.79 49.2 354.79 49.2L375.37 31.94C378.53 29.29 383.14 29.28 386.31 31.93L437.74 74.92C440.73 77.42 442.45 81.11 442.45 85V156.46C442.45 163.35 436.86 168.94 429.97 168.94H373.55L376.44 156.82H426.21C428.58 156.82 430.5 154.89 430.49 152.52L430.16 87.3C430.16 85.37 429.3 83.54 427.8 82.31L384.75 45.42C383.08 43.99 380.63 43.96 378.93 45.36L314.71 97.96V88.63C314.71 84.83 316.38 81.23 319.29 78.79L334.61 65.88L334.6 65.86Z" fill="#F26522"/>
<path d="M270.13 191.3C268.15 190.98 265.48 193.07 264.58 194.22L264.62 192.81C264.62 192.59 264.4 192.23 264.08 192.05C263.72 191.87 263.36 191.87 263.36 192.12C263.29 192.72 263.24 193.25 263.19 193.73C261.67 195.32 259.16 197.82 255.78 197.82C254.52 197.82 253.26 196.67 253.15 195.98C254.41 195.98 255.96 195.12 256.43 193.96C256.83 192.91 255.78 191.83 254.66 191.83C253.43 191.88 252.54 192.69 252.11 193.71C251.33 193.82 250.49 193.92 249.65 193.92C248.89 193.92 248.14 193.81 247.49 193.6V193.56C247.81 192.48 247.02 191.86 246.59 192.05C246.27 192.27 245.98 192.84 246.19 193.6C245.83 194.64 244.68 197.39 244.03 197.42C243.31 196.55 243.17 193.78 243.31 192.66C243.38 192.41 243.09 192.05 242.88 191.9C242.52 191.72 242.2 191.83 242.16 192.08C242.05 192.58 242.02 193.09 242.02 193.63C242.02 195.14 242.42 196.77 243.32 197.85C243.86 198.39 244.33 198.25 244.94 198.07C245.84 197.78 246.78 195.87 247.18 194.54C247.68 194.94 248.55 195.04 249.45 195.04C250.3 195.04 251.19 194.92 251.86 194.78C251.85 194.89 251.83 195 251.83 195.12C251.83 195.48 251.9 195.84 252.01 196.16C252.73 198.4 255.47 198.79 257.6 198.68C259.85 198.55 261.94 197.09 263.07 195.27C262.93 197.13 262.99 197.69 263.09 197.92C263.24 198.46 264.42 198.93 264.39 198.46C264.53 197.42 264.53 197.2 264.64 196.91C265.51 194.42 268.5 192.22 270.3 192.26L270.26 192.55C270.22 192.84 270.73 193.05 271.23 192.48C271.48 192.19 270.98 191.43 270.15 191.29L270.13 191.3ZM255.24 193.07C255.64 193.47 254.63 194.44 253.11 195.13C253.07 194.23 254.48 192.32 255.24 193.07Z" fill="#F26522"/>
<path d="M309.51 189.07C309.83 189.25 310.27 189.25 310.38 189.11C310.49 188.93 310.78 188.14 310.85 187.96C310.96 187.74 310.96 187.49 310.96 187.35C311.03 187.17 310.74 186.88 310.27 186.77C309.91 186.63 309.51 186.7 309.51 186.91L309.44 187.45C309.37 187.63 309.12 188.35 309.04 188.46C308.86 188.6 309.08 188.93 309.51 189.07Z" fill="#F26522"/>
<path d="M347.44 194.76C346.75 194.29 342.03 196.46 341.06 197.03L341.02 197.07V196.93C340.98 194.84 340.8 193.14 340.77 193.07C340.73 192.57 339.72 191.99 339.51 192.35C339.4 192.5 339.26 192.78 339.01 193.11L338.94 193.15L338.9 193.11C337.57 192.61 336.38 192.39 335.44 192.39C334.25 192.39 333.57 192.75 332.95 193.22C332.73 193.44 332.6 193.71 332.52 194.01C331.05 195.05 328.78 196.76 327.04 196.76C326.57 196.76 326.18 196.65 325.82 196.36C325.35 195.67 325.75 194.31 325.75 193.69C325.75 193.15 325.1 192.5 324.42 192.43C322.4 192.21 319.8 193.51 318.58 194.41L318.65 193.18C318.69 192.96 318.36 192.64 318.07 192.46C317.71 192.32 317.35 192.35 317.35 192.6L317.24 193.72C315.78 194.99 312.56 197.26 310.57 197.26C310.17 197.26 309.81 197.15 309.52 196.94C309.21 196.67 309.32 195.23 309.52 193.98C309.55 193.85 309.57 193.74 309.57 193.66C309.71 192.87 309.88 192.21 309.99 192.1C310.03 191.92 309.81 191.63 309.41 191.49C308.98 191.38 308.62 191.42 308.58 191.6C308.18 192.21 307.97 193.33 307.97 194.45C307.97 194.56 307.98 194.67 307.99 194.79C306.32 195.84 303.87 196.65 302.49 196.65C302.09 196.65 301.7 196.58 301.34 196.4C301.09 195.35 301.38 194.34 301.27 193.48C301.13 193.01 300.58 192.58 300.08 192.43C298.02 191.78 294.96 194.66 293.84 195.93V192.72C293.87 190.56 293.91 188.45 293.97 186.37C294 185.51 294.68 184.81 295.53 184.77C296.99 184.69 298.5 184.64 299.96 184.64C302.12 184.64 304.14 184.75 305.76 185.07C306.05 185.1 306.23 184.96 306.19 184.67C306.05 184.45 305.69 184.09 305.36 183.95C304.06 183.66 302.19 183.55 300.13 183.55C298.78 183.55 297.34 183.6 295.91 183.67C294.92 183.72 294.1 182.91 294.16 181.92C294.23 180.76 294.32 179.61 294.43 178.47C294.43 177.93 293.02 177.5 293.02 178C292.94 179.47 292.87 180.92 292.81 182.37C292.77 183.21 292.11 183.9 291.27 183.96C290.62 184.01 290 184.05 289.42 184.09C289.06 184.12 288.7 184.16 288.37 184.16C288.51 181.35 288.73 178.54 288.98 176.73C288.87 176.01 287.47 175.79 287.5 176.37C287.38 178.22 287.24 180.5 287.11 182.83C287.06 183.65 286.41 184.32 285.59 184.39C282.01 184.7 279.74 184.97 277.48 185.39C276.87 185.53 277.62 186.47 278.31 186.36C280.58 185.96 282.81 185.74 285.11 185.55C286.11 185.46 286.95 186.28 286.91 187.28C286.85 188.79 286.8 190.21 286.78 191.41C286.77 191.99 286.75 192.66 286.74 193.4C286.73 194.14 286.28 194.76 285.61 194.99C284.01 195.52 282.11 196.48 281.52 196.82L281.48 196.86V196.72C281.45 194.63 281.26 193.15 281.23 193.08C281.19 192.68 280.58 192.25 280.22 192.25C280.08 192.25 279.93 192.29 279.9 192.36C279.86 192.4 279.83 192.4 279.9 192.43C279.86 192.47 279.79 192.5 279.79 192.57C279.72 193.72 276.54 197.94 275.03 197.08C274.42 196.72 274.34 195.67 274.27 195.1C274.31 194.6 274.41 194.13 274.49 193.77C274.67 193.41 274.85 193.19 274.99 193.16C275.17 193.09 275.17 192.76 274.88 192.47C274.59 192.18 274.19 192.04 273.98 192.11C273.62 192.22 273.4 192.58 273.26 192.98C273.08 193.45 273.01 193.95 273.01 194.46C273.01 195.07 273.15 195.68 273.33 196.19C273.8 197.34 274.95 198.25 276.14 198.25C277.33 198.25 278.99 196.81 280.03 195.4L280.21 197.74L279.31 198.39C275.67 201.09 272.78 204.7 272.24 207.48C272.06 208.78 272.64 210.08 273.61 211.09C274.62 212.1 276.06 212.68 276.96 212.5C280.1 211.85 281.07 206.91 281.36 202.37L281.47 199.02L281.51 198.59L282.56 197.87C283.71 197.19 285.35 196.28 286.71 195.69C286.71 196.09 286.71 196.49 286.71 196.9C286.71 201.73 286.85 207.32 287.25 208.58C287.5 209.34 288.62 210.09 288.51 209.27C288.04 207.57 287.9 204.04 287.9 200.36C287.9 198.62 287.93 196.84 287.96 195.22C288.15 195.16 288.17 195.08 287.96 194.88C287.99 193.58 288.02 192.38 288.03 191.38L288.19 187.52L290.47 185.14C290.59 185.14 290.72 185.12 290.85 185.11C291.83 185.03 292.66 185.82 292.64 186.81C292.6 188.51 292.57 190.25 292.57 192.06V197.18C292.57 197.87 292.57 198.3 292.61 198.37C292.75 198.95 293.87 199.42 293.83 198.87C293.98 197.21 297.76 193.39 299.82 193.5C299.82 193.75 299.75 194.19 299.75 194.69C299.75 195.45 299.93 196.39 300.76 197C301.59 197.54 302.38 197.72 303.18 197.72C304.93 197.72 306.91 196.93 308.11 196.03C308.24 196.63 308.44 197.15 308.74 197.47C309.42 198.23 310.4 198.44 311.3 198.41C313.31 198.32 315.82 196.45 317.08 195.07L316.96 196.25C316.89 196.68 316.93 197.04 316.96 197.33C317 197.91 318.26 198.23 318.22 197.76L318.25 196.93C318.94 195.42 321.68 193.69 324.34 193.4C324.27 193.83 324.23 194.23 324.23 194.63C324.23 195.28 324.34 195.89 324.7 196.43C325.35 197.37 326.5 197.8 327.55 197.8C329.58 197.8 331.48 196.57 332.6 195.5C332.67 195.66 332.74 195.83 332.85 196C333.1 196.36 333.46 196.72 333.89 197.04C333.96 197.11 334.07 197.18 334.21 197.26C334.57 197.44 334.93 197.51 335.26 197.51C335.73 197.51 336.13 197.37 336.45 197.26C337.06 196.97 337.67 196.5 338.29 196C338.76 195.6 339.19 195.17 339.51 194.77L339.62 194.7V194.88L339.69 197.84L339.73 197.99L338.83 198.64C335.19 201.34 332.3 204.73 331.76 207.51C331.58 208.81 332.16 210.11 333.13 211.12C334.14 212.13 335.4 212.49 336.3 212.31C339.44 211.66 340.59 206.94 340.88 202.39L340.99 199.04L341.03 198.61L342.08 197.89C343.59 196.99 345.97 195.69 347.42 195.26C347.71 195.19 347.78 195.08 347.42 194.83L347.44 194.76ZM276.01 211.38C275.58 211.49 274.89 211.2 274.35 210.69C273.92 210.19 273.38 209.28 273.59 208.17C273.99 205.75 276.44 202.83 279.36 200.17L280.19 199.41C280.23 204.46 278.75 210.84 276.01 211.38ZM337.96 194.22L337.17 194.98C336.59 195.48 335.94 195.92 335.44 196.17C335.15 196.31 334.9 196.39 334.65 196.39C334.43 196.39 334.36 196.35 334.36 196.35L334.11 196.17C333.89 195.88 333.75 195.52 333.75 195.16C333.75 194.8 333.86 194.48 334.15 194.15C334.55 193.75 335.27 193.46 336.24 193.46C336.78 193.46 337.39 193.57 338.08 193.75L338.33 193.82L337.97 194.22H337.96ZM335.54 211.38C335.11 211.49 334.42 211.2 333.88 210.69C333.45 210.19 332.91 209.28 333.12 208.17C333.52 205.75 335.82 202.69 338.89 200.17L339.65 199.52C339.72 204.17 338.68 210.73 335.54 211.38Z" fill="#F26522"/>
<path d="M358.729 189.07C359.049 189.25 359.489 189.25 359.599 189.11C359.709 188.93 359.999 188.14 360.069 187.96C360.179 187.74 360.179 187.49 360.179 187.35C360.249 187.17 359.959 186.88 359.489 186.77C359.129 186.63 358.729 186.7 358.729 186.91L358.659 187.45C358.589 187.63 358.339 188.35 358.259 188.46C358.079 188.6 358.299 188.93 358.729 189.07Z" fill="#F26522"/>
<path d="M371.49 190.26C369.65 190.51 365.72 191.67 366.01 193.58C366.03 193.73 366.1 193.84 366.15 193.96C364.59 195.25 361.64 197.26 359.77 197.26C359.37 197.26 359.01 197.15 358.72 196.94C358.18 196.47 358.9 192.4 359.19 192.11C359.23 191.93 359.01 191.64 358.61 191.5C358.18 191.39 357.82 191.43 357.78 191.61C357.38 192.22 357.17 193.34 357.17 194.46C357.17 195.65 357.42 196.88 357.96 197.45C358.65 198.21 359.62 198.42 360.52 198.39C362.72 198.29 365.54 196.06 366.63 194.67C367.04 195.02 367.57 195.28 368.09 195.58C368.81 195.98 370.18 196.66 371.08 197.13C370.14 197.35 368.7 197.53 367.55 197.53C367.08 197.53 366.68 197.49 366.36 197.42C365.57 197.24 365.89 198.14 366.32 198.36C366.86 198.58 367.73 198.68 368.63 198.68C369.53 198.68 370.51 198.57 371.15 198.39C372.09 198.14 372.77 197.13 371.98 196.44C371.26 195.86 370.18 195.32 368.81 194.56C368.09 194.13 367.26 193.77 367.48 193.26C367.88 192.32 371.16 191.71 372.49 191.24C372.78 190.88 372.06 190.2 371.48 190.27L371.49 190.26Z" fill="#F26522"/>
<path d="M395.58 189.07C395.9 189.25 396.34 189.25 396.45 189.11C396.56 188.93 396.85 188.14 396.92 187.96C397.03 187.74 397.03 187.49 397.03 187.35C397.1 187.17 396.81 186.88 396.34 186.77C395.98 186.63 395.58 186.7 395.58 186.91L395.51 187.45C395.44 187.63 395.19 188.35 395.11 188.46C394.93 188.6 395.15 188.93 395.58 189.07Z" fill="#F26522"/>
<path d="M439.609 192.6C438.639 193.36 428.429 197.68 423.819 197.68C423.599 197.68 423.369 197.67 423.149 197.64C421.609 197.46 421.089 195.34 422.429 194.56C423.319 194.04 423.879 193.2 423.819 192.42C423.779 191.99 423.459 191.63 422.949 191.37C422.589 191.23 422.269 191.19 421.909 191.19C420.699 191.19 419.649 191.93 419.169 193.16C419.039 193.5 418.839 193.82 418.539 194.03C417.069 195.07 414.819 196.75 413.099 196.75C412.629 196.75 412.239 196.64 411.879 196.35C411.409 195.66 411.809 194.3 411.809 193.68C411.809 193.14 411.159 192.49 410.479 192.42C408.459 192.2 405.859 193.5 404.639 194.4L404.709 193.17C404.749 192.95 404.419 192.63 404.129 192.45C403.769 192.31 403.409 192.34 403.409 192.59L403.299 193.71C401.839 194.98 398.619 197.25 396.629 197.25C396.229 197.25 395.869 197.14 395.579 196.93C395.309 196.69 395.359 195.55 395.509 194.43C396.379 193.97 396.269 193.39 395.659 193.58C395.659 193.58 395.659 193.58 395.649 193.58C395.789 192.82 395.949 192.2 396.059 192.1C396.099 191.92 395.879 191.63 395.479 191.49C395.049 191.38 394.689 191.42 394.649 191.6C394.489 191.84 394.359 192.17 394.269 192.54C394.079 193.26 393.499 193.81 392.749 193.84C390.709 193.94 388.309 194 388.049 193.98H387.909L387.869 193.76C387.939 191.79 388.269 186.65 388.509 184.62C388.539 184.37 388.509 183.58 388.919 182.88C389.999 181.05 391.679 180.48 393.169 180.51L393.129 180.8C393.089 181.09 393.599 181.3 394.099 180.73C394.349 180.44 393.849 179.68 393.019 179.54C391.209 179.24 388.609 180.3 387.629 182.08C387.449 182.45 387.359 182.95 387.349 182.98C386.849 185.05 386.629 190.99 386.589 193.15L386.629 193.83L385.729 193.65C384.969 193.47 385.259 194.41 386.019 194.62L386.629 194.91C386.519 196.39 386.409 198.33 386.409 200.39C386.409 204.61 386.909 209.26 389.109 211.13C389.149 211.16 389.179 211.2 389.219 211.2C390.049 211.63 390.659 211.56 391.059 211.27C391.459 210.98 391.819 210.48 392.029 209.83C392.429 208.82 392.609 207.41 392.609 205.86C392.609 205.43 392.609 205 392.569 204.53C392.429 202.44 391.879 200.2 390.869 198.22C390.289 197.25 389.719 196.31 388.889 195.52L388.279 195.02L388.599 195.06C388.889 195.1 389.359 195.1 389.929 195.1C390.679 195.1 391.609 195.08 392.489 195.01C393.279 194.96 394.019 195.45 394.219 196.22C394.349 196.73 394.539 197.16 394.799 197.44C395.479 198.2 396.459 198.41 397.359 198.38C399.369 198.29 401.879 196.42 403.139 195.04L403.019 196.22C402.949 196.65 402.989 197.01 403.019 197.3C403.059 197.88 404.319 198.2 404.279 197.73L404.309 196.9C404.999 195.39 407.739 193.66 410.399 193.37C410.329 193.8 410.289 194.2 410.289 194.6C410.289 195.25 410.399 195.86 410.759 196.4C411.409 197.34 412.559 197.77 413.609 197.77C415.049 197.77 416.419 197.15 417.499 196.41C418.189 195.94 419.079 196.19 419.609 196.83C420.699 198.15 422.789 198.64 424.749 198.59C430.449 198.44 439.569 194.73 440.039 192.82C440.109 192.53 439.749 192.46 439.569 192.6H439.609ZM422.769 192.38C422.629 193.14 421.149 194.4 420.349 194.11C420.489 193.21 421.249 192.2 422.769 192.38ZM389.809 198.23C390.709 200 391.179 202.09 391.319 204.07C391.359 204.61 391.389 205.19 391.389 205.69C391.389 207.06 391.209 208.25 390.849 209.11C390.439 210.33 389.879 210.53 389.509 210.36L389.409 210.22C387.929 208.38 387.539 204.45 387.539 200.85C387.539 198.9 387.649 197.03 387.789 195.69L388.189 195.98C388.769 196.59 389.339 197.35 389.809 198.22V198.23Z" fill="#F26522"/>
<path d="M249.95 205.78H246.79C244 205.78 239.06 205.82 236.64 205.85L235.31 205.89C233.36 205.95 231.41 206.04 229.39 206.17C229.39 206.01 229.39 205.86 229.39 205.69C229.39 204.32 229.19 202.75 228.77 201.81C228.67 201.58 228.59 201.34 228.59 201.09L228.51 194.42C228.5 193.51 229.22 192.76 230.13 192.74C232.21 192.7 235.02 192.68 236.71 192.68C237.97 192.68 239.31 192.71 240.75 192.71C241.04 192.71 241.18 192.49 240.89 192.21C240.67 191.89 240.28 191.63 239.99 191.63H237.25C235.37 191.63 232.37 191.65 230.14 191.68C229.21 191.69 228.46 190.93 228.47 190.01C228.5 185.83 228.55 182.04 228.95 176.67C229 175.98 229.48 175.39 230.14 175.19C232.06 174.62 233.76 174.15 235.1 173.79C238.24 173 241.09 172.57 243.39 172.57C246.27 172.57 248.37 173.25 249.27 174.7C249.38 174.92 249.74 174.84 249.67 174.41C249.13 172.25 246.21 171.56 242.93 171.56C240.19 171.56 237.16 172.03 234.96 172.57C233.48 172.97 231.46 173.51 229.3 174.19C229.34 174.01 229.41 173.9 229.48 173.83C229.55 173.69 229.41 173.33 229.05 173.14C228.62 172.85 228.33 172.85 228.15 172.96C227.93 173.32 227.83 173.9 227.72 174.69C223 176.2 217.73 178.11 214.74 179.38L213.12 180.03C212.72 180.64 213.41 181.26 213.81 181.11C216.84 179.72 221.17 178.12 225.33 176.74C226.44 176.37 227.57 177.24 227.5 178.41C227.36 181.02 227.3 183.72 227.3 186.91C227.3 187.92 227.3 188.99 227.31 190.12C227.31 191.02 226.62 191.76 225.72 191.8C223.16 191.92 220.56 192.11 217.63 192.38C217.41 192.42 217.34 192.67 217.59 192.96C217.63 193.03 217.66 193.07 217.77 193.14C217.77 193.17 217.81 193.21 217.81 193.21C218.1 193.39 218.39 193.5 218.57 193.43H218.64C221.42 194.19 224.91 196.67 226.79 199.81C227.04 200.13 227.15 200.5 227.44 200.89C227.44 201.37 227.51 203.04 227.62 204.61C227.68 205.52 227 206.31 226.08 206.38C225.45 206.43 224.81 206.47 224.15 206.53C223.9 206.57 223.82 206.82 224.11 207.11C224.15 207.18 224.19 207.22 224.32 207.29C224.32 207.32 224.36 207.36 224.36 207.36C224.69 207.54 225.03 207.65 225.23 207.58H225.31C225.31 207.58 225.4 207.61 225.44 207.62H225.74C225.61 207.56 225.88 207.58 227.43 207.44C227.59 207.43 227.74 207.42 227.9 207.41C227.92 207.54 227.95 207.65 227.98 207.71C227.98 207.75 228.02 207.78 227.98 207.82C228.16 208.11 228.56 208.47 228.85 208.43C229.06 208.41 229.22 207.96 229.32 207.31C231.36 207.17 233.39 207.06 235.3 207L236.71 206.93C238.91 206.86 243.65 206.82 246.19 206.82C247.64 206.82 249.18 206.85 250.85 206.85C251.18 206.85 251.35 206.63 251.02 206.35C250.77 206.03 250.31 205.77 249.98 205.77L249.95 205.78ZM225.42 192.93C225.42 192.93 225.51 192.93 225.56 192.93C226.5 192.88 227.27 193.64 227.28 194.57V194.7C227.3 196.14 225.63 196.89 224.53 195.96C224.51 195.94 224.48 195.92 224.46 195.9C223.28 194.91 223.88 193.01 225.42 192.93Z" fill="#F26522"/>
</svg>
